<mxfile host="app.diagrams.net" agent="Mozilla/5.0 (Windows NT 10.0; Win64; x64) AppleWebKit/537.36 (KHTML, like Gecko) Chrome/128.0.0.0 Safari/537.36" version="24.7.8">
  <diagram name="PÃ¡gina-1" id="HC_30oQVAhdmxyoMI21p">
    <mxGraphModel dx="1167" dy="628" grid="1" gridSize="10" guides="1" tooltips="1" connect="1" arrows="1" fold="1" page="1" pageScale="1" pageWidth="827" pageHeight="1169" math="0" shadow="0">
      <root>
        <mxCell id="0" />
        <mxCell id="1" parent="0" />
        <mxCell id="sNkfMCGJtLS7x6KP368_-1" style="edgeStyle=orthogonalEdgeStyle;rounded=0;orthogonalLoop=1;jettySize=auto;html=1;entryX=1;entryY=0.5;entryDx=0;entryDy=0;" edge="1" parent="1" source="sNkfMCGJtLS7x6KP368_-6" target="sNkfMCGJtLS7x6KP368_-7">
          <mxGeometry relative="1" as="geometry" />
        </mxCell>
        <mxCell id="sNkfMCGJtLS7x6KP368_-2" style="edgeStyle=orthogonalEdgeStyle;rounded=0;orthogonalLoop=1;jettySize=auto;html=1;entryX=1;entryY=0.5;entryDx=0;entryDy=0;" edge="1" parent="1" source="sNkfMCGJtLS7x6KP368_-6" target="sNkfMCGJtLS7x6KP368_-8">
          <mxGeometry relative="1" as="geometry" />
        </mxCell>
        <mxCell id="sNkfMCGJtLS7x6KP368_-3" style="edgeStyle=orthogonalEdgeStyle;rounded=0;orthogonalLoop=1;jettySize=auto;html=1;entryX=1;entryY=0.5;entryDx=0;entryDy=0;" edge="1" parent="1" source="sNkfMCGJtLS7x6KP368_-6" target="sNkfMCGJtLS7x6KP368_-9">
          <mxGeometry relative="1" as="geometry" />
        </mxCell>
        <mxCell id="sNkfMCGJtLS7x6KP368_-6" value="automovel" style="rounded=0;whiteSpace=wrap;html=1;" vertex="1" parent="1">
          <mxGeometry x="340" y="265" width="120" height="60" as="geometry" />
        </mxCell>
        <mxCell id="sNkfMCGJtLS7x6KP368_-7" value="placa" style="ellipse;whiteSpace=wrap;html=1;" vertex="1" parent="1">
          <mxGeometry x="190" y="200" width="100" height="50" as="geometry" />
        </mxCell>
        <mxCell id="sNkfMCGJtLS7x6KP368_-8" value="modelo" style="ellipse;whiteSpace=wrap;html=1;" vertex="1" parent="1">
          <mxGeometry x="190" y="270" width="100" height="50" as="geometry" />
        </mxCell>
        <mxCell id="sNkfMCGJtLS7x6KP368_-9" value="ano" style="ellipse;whiteSpace=wrap;html=1;" vertex="1" parent="1">
          <mxGeometry x="190" y="340" width="100" height="50" as="geometry" />
        </mxCell>
        <mxCell id="sNkfMCGJtLS7x6KP368_-26" value="n" style="edgeStyle=orthogonalEdgeStyle;rounded=0;orthogonalLoop=1;jettySize=auto;html=1;entryX=1;entryY=0.5;entryDx=0;entryDy=0;" edge="1" parent="1" source="sNkfMCGJtLS7x6KP368_-12" target="sNkfMCGJtLS7x6KP368_-6">
          <mxGeometry relative="1" as="geometry" />
        </mxCell>
        <mxCell id="sNkfMCGJtLS7x6KP368_-12" value="possui" style="rhombus;whiteSpace=wrap;html=1;" vertex="1" parent="1">
          <mxGeometry x="540" y="255" width="80" height="80" as="geometry" />
        </mxCell>
        <mxCell id="sNkfMCGJtLS7x6KP368_-13" style="edgeStyle=orthogonalEdgeStyle;rounded=0;orthogonalLoop=1;jettySize=auto;html=1;entryX=0;entryY=0.5;entryDx=0;entryDy=0;" edge="1" parent="1" source="sNkfMCGJtLS7x6KP368_-17" target="sNkfMCGJtLS7x6KP368_-18">
          <mxGeometry relative="1" as="geometry" />
        </mxCell>
        <mxCell id="sNkfMCGJtLS7x6KP368_-14" style="edgeStyle=orthogonalEdgeStyle;rounded=0;orthogonalLoop=1;jettySize=auto;html=1;entryX=0;entryY=0.5;entryDx=0;entryDy=0;" edge="1" parent="1" source="sNkfMCGJtLS7x6KP368_-17" target="sNkfMCGJtLS7x6KP368_-19">
          <mxGeometry relative="1" as="geometry" />
        </mxCell>
        <mxCell id="sNkfMCGJtLS7x6KP368_-15" style="edgeStyle=orthogonalEdgeStyle;rounded=0;orthogonalLoop=1;jettySize=auto;html=1;entryX=0;entryY=0.5;entryDx=0;entryDy=0;" edge="1" parent="1" source="sNkfMCGJtLS7x6KP368_-17" target="sNkfMCGJtLS7x6KP368_-20">
          <mxGeometry relative="1" as="geometry" />
        </mxCell>
        <mxCell id="sNkfMCGJtLS7x6KP368_-22" value="1" style="edgeStyle=orthogonalEdgeStyle;rounded=0;orthogonalLoop=1;jettySize=auto;html=1;entryX=1;entryY=0.5;entryDx=0;entryDy=0;" edge="1" parent="1" source="sNkfMCGJtLS7x6KP368_-17" target="sNkfMCGJtLS7x6KP368_-12">
          <mxGeometry relative="1" as="geometry" />
        </mxCell>
        <mxCell id="sNkfMCGJtLS7x6KP368_-17" value="montadora" style="rounded=0;whiteSpace=wrap;html=1;" vertex="1" parent="1">
          <mxGeometry x="700" y="265" width="120" height="60" as="geometry" />
        </mxCell>
        <mxCell id="sNkfMCGJtLS7x6KP368_-18" value="nome" style="ellipse;whiteSpace=wrap;html=1;" vertex="1" parent="1">
          <mxGeometry x="870" y="200" width="100" height="50" as="geometry" />
        </mxCell>
        <mxCell id="sNkfMCGJtLS7x6KP368_-19" value="site" style="ellipse;whiteSpace=wrap;html=1;" vertex="1" parent="1">
          <mxGeometry x="870" y="270" width="100" height="50" as="geometry" />
        </mxCell>
        <mxCell id="sNkfMCGJtLS7x6KP368_-20" value="logotipo" style="ellipse;whiteSpace=wrap;html=1;" vertex="1" parent="1">
          <mxGeometry x="870" y="340" width="100" height="50" as="geometry" />
        </mxCell>
      </root>
    </mxGraphModel>
  </diagram>
</mxfile>
